# xmcd
#
# Track frame offsets: 
#        150
#        11445
#        21518
#        33914
#        46865
#        59377
#        71206
#        83839
#        96249
#        108865
#        121665
#
# Disc length: 1807 seconds
#
# Revision: 0
# Processed by: cddbd v1.5.2PL0 Copyright (c) Steve Scherf et al.
# Submitted via: ExactAudioCopy v1.0b1
#
DISCID=86070d0b
DTITLE=Chet Atkins  - Yestergroovin' -  (RCA LSP-4331) 1970  
DYEAR=1900
DGENRE=
TTITLE0=Steeplechase Lane
TTITLE1=Tennessee Pride
TTITLE2=Rocky Top
TTITLE3=Gotta Travel On
TTITLE4=Cherokee
TTITLE5=Country Champagne
TTITLE6=Liberty
TTITLE7=Inka Dinka Doo
TTITLE8=Bring Me Sunshine
TTITLE9=Yestergroovin'
TTITLE10=How High The Moon
EXTD=
EXTT0=
EXTT1=
EXTT2=
EXTT3=
EXTT4=
EXTT5=
EXTT6=
EXTT7=
EXTT8=
EXTT9=
EXTT10=
PLAYORDER=
